<?xml version="1.0" encoding="UTF-8" standalone="no"?>
<!-- Created with Inkscape (http://www.inkscape.org/) -->

<svg
   xmlns:dc="http://purl.org/dc/elements/1.1/"
   xmlns:cc="http://creativecommons.org/ns#"
   xmlns:rdf="http://www.w3.org/1999/02/22-rdf-syntax-ns#"
   xmlns:svg="http://www.w3.org/2000/svg"
   xmlns="http://www.w3.org/2000/svg"
   xmlns:sodipodi="http://sodipodi.sourceforge.net/DTD/sodipodi-0.dtd"
   xmlns:inkscape="http://www.inkscape.org/namespaces/inkscape"
   width="210mm"
   height="297mm"
   viewBox="0 0 210 297"
   version="1.1"
   id="svg8"
   inkscape:version="0.92.4 (unknown)"
   sodipodi:docname="discochap-logo.svg"
   inkscape:export-filename="/home/tdonohue/Code/repos/discochap/assets/img/discochap-logo.png"
   inkscape:export-xdpi="44.57"
   inkscape:export-ydpi="44.57">
  <defs
     id="defs2" />
  <sodipodi:namedview
     id="base"
     pagecolor="#ffffff"
     bordercolor="#666666"
     borderopacity="1.0"
     inkscape:pageopacity="0.0"
     inkscape:pageshadow="2"
     inkscape:zoom="0.49497475"
     inkscape:cx="146.4624"
     inkscape:cy="441.25921"
     inkscape:document-units="mm"
     inkscape:current-layer="layer1"
     showgrid="true"
     showguides="true"
     inkscape:guide-bbox="true"
     inkscape:window-width="1920"
     inkscape:window-height="1080"
     inkscape:window-x="1920"
     inkscape:window-y="0"
     inkscape:window-maximized="1">
    <inkscape:grid
       type="xygrid"
       id="grid10" />
  </sodipodi:namedview>
  <metadata
     id="metadata5">
    <rdf:RDF>
      <cc:Work
         rdf:about="">
        <dc:format>image/svg+xml</dc:format>
        <dc:type
           rdf:resource="http://purl.org/dc/dcmitype/StillImage" />
        <dc:title></dc:title>
      </cc:Work>
    </rdf:RDF>
  </metadata>
  <g
     inkscape:label="Layer 1"
     inkscape:groupmode="layer"
     id="layer1">
    <path
       style="fill:#cccccc;fill-opacity:1;stroke:none;stroke-width:3.26499963;stroke-linejoin:round;stroke-miterlimit:4;stroke-dasharray:none;stroke-opacity:1"
       d="m 42.260476,108.24098 a 34.395833,34.395833 0 0 0 -14.82235,28.27269 34.395833,34.395833 0 0 0 14.839405,28.24789 L 55.7041,145.36843 a 10.77232,10.77232 0 0 1 -4.642609,-8.85476 10.77232,10.77232 0 0 1 4.647777,-8.84701 z"
       id="path4770"
       inkscape:connector-curvature="0" />
    <path
       style="fill:#4d4d4d;fill-opacity:1;stroke:none;stroke-width:3.26499963;stroke-linejoin:round;stroke-miterlimit:4;stroke-dasharray:none;stroke-opacity:1"
       d="m 42.260476,108.24098 13.448792,19.42568 a 10.77232,10.77232 0 0 1 6.124691,-1.92546 10.77232,10.77232 0 0 1 10.772468,10.77247 10.77232,10.77232 0 0 1 -10.772468,10.77247 10.77232,10.77232 0 0 1 -6.129859,-1.91771 l -13.426569,19.39313 a 34.395833,34.395833 0 0 0 19.556428,6.14794 34.395833,34.395833 0 0 0 34.395833,-34.39583 34.395833,34.395833 0 0 0 -34.395833,-34.39583 34.395833,34.395833 0 0 0 -19.573483,6.12314 z"
       id="path4729"
       inkscape:connector-curvature="0" />
    <path
       inkscape:connector-curvature="0"
       style="fill:#cccccc;fill-opacity:1;stroke:none;stroke-width:3.26499987;stroke-linejoin:round;stroke-miterlimit:4;stroke-dasharray:none;stroke-opacity:1"
       d="m 156.3238,108.24098 a 34.395833,34.395833 0 0 1 14.82235,28.27269 34.395833,34.395833 0 0 1 -14.83941,28.24789 l -13.42657,-19.39313 a 10.77232,10.77232 0 0 0 4.64261,-8.85476 10.77232,10.77232 0 0 0 -4.64778,-8.847 z"
       id="path4770-9" />
    <path
       inkscape:connector-curvature="0"
       style="fill:#4d4d4d;fill-opacity:1;stroke:none;stroke-width:3.26499987;stroke-linejoin:round;stroke-miterlimit:4;stroke-dasharray:none;stroke-opacity:1"
       d="m 156.3238,108.24098 -13.4488,19.42569 a 10.77232,10.77232 0 0 0 -6.12469,-1.92546 10.77232,10.77232 0 0 0 -10.77247,10.77246 10.77232,10.77232 0 0 0 10.77247,10.77248 10.77232,10.77232 0 0 0 6.12986,-1.91772 l 13.42657,19.39313 a 34.395833,34.395833 0 0 1 -19.55643,6.14795 34.395833,34.395833 0 0 1 -34.39583,-34.39584 34.395833,34.395833 0 0 1 34.39583,-34.39583 34.395833,34.395833 0 0 1 19.57349,6.12314 z"
       id="path4729-3" />
  </g>
</svg>
